<svg width="48" height="48" viewBox="0 0 48 48" fill="none" xmlns="http://www.w3.org/2000/svg">
<path d="M23.5 43.5V44.5L21.5 46.5H1V17H4M23.5 43.5V40M23.5 43.5C19.7031 37.7126 15.0821 34.132 8.5 32V4.5C10.793 4.83345 11.6803 5.27845 13 6V29.5M23.5 43.5C15.475 38.8408 14.5 44 4 43.5V17M8.5 14C6.85817 14.3494 6.5 15.5 4 16V17M13 29.5V2C19.4718 4.69276 22.669 9.04081 23.5 16V40M13 29.5C19.2957 31.0902 21.9429 36.5563 23.5 40" stroke="#EB7605" stroke-width="1.5" stroke-linejoin="round"/>
<path d="M23.5 43.5V44.5L25.5 46.5H46V17H43M23.5 43.5V40V16C28.6954 11.6948 32.6966 9.74609 40.5 9V15.5M23.5 43.5C31.2241 39.2194 38.5 43.5 43 43.5V17M23.5 43.5C29.0095 39.4927 31.695 36.6755 40.5 37.5V15.5M43 17V16L40.5 15.5" stroke="#EB7605" stroke-width="1.5" stroke-linejoin="round"/>
</svg>
