<svg width="48" height="48" viewBox="0 0 48 48" fill="none" xmlns="http://www.w3.org/2000/svg">
<path d="M44.9623 21.3933C44.9623 18.9778 44.4866 16.5861 43.5622 14.3545C42.6379 12.1229 41.283 10.0952 39.5751 8.38727C37.8671 6.67929 35.8394 5.32445 33.6079 4.4001C31.3763 3.47576 28.9845 3 26.5691 3L26.5691 21.3933H44.9623Z" stroke="#EB7605" stroke-width="1.5" stroke-linejoin="round"/>
<path d="M9.38727 38.954C11.9596 41.5263 15.237 43.2781 18.8049 43.9878C22.3729 44.6975 26.0712 44.3333 29.4321 42.9411C32.793 41.549 35.6657 39.1915 37.6867 36.1667C39.7078 33.142 40.7866 29.5858 40.7866 25.948H22.3933L9.38727 38.954Z" stroke="#EB7605" stroke-width="1.5" stroke-linejoin="round"/>
<path d="M22.3933 7.55469C18.7554 7.55469 15.1993 8.63343 12.1745 10.6545C9.14976 12.6756 6.79225 15.5482 5.40011 18.9092C4.00796 22.2701 3.64371 25.9684 4.35342 29.5363C5.06313 33.1043 6.81492 36.3816 9.38727 38.954L22.3933 25.948L22.3933 7.55469Z" stroke="#EB7605" stroke-width="1.5" stroke-linejoin="round"/>
<path d="M12.7322 35.6984L5.11474 32.1491M16.6338 31.8179L4 25.984M20.3496 28.0541L4.92895 21.091M22.3933 23.5375L6.78686 16.5745M22.3933 18.2682L9.75951 12.4343M22.3933 12.6225L14.7759 9.04688" stroke="#EB7605" stroke-width="1.5" stroke-linecap="round"/>
</svg>
