<svg width="48" height="48" viewBox="0 0 48 48" fill="none" xmlns="http://www.w3.org/2000/svg">
<rect x="2" y="3" width="20" height="20" rx="10" stroke="#EB7605" stroke-width="1.5"/>
<path d="M14 8.37701C12.6364 7.47079 11.2727 8.30226 11.2727 9.76521C11.2727 11.2282 11.2727 15.5626 11.2727 18M9 12.5139H13.5455" stroke="#EB7605" stroke-width="1.5" stroke-linecap="round" stroke-linejoin="round"/>
<rect x="26" y="3" width="20" height="20" rx="10" stroke="#EB7605" stroke-width="1.5"/>
<path d="M33 17V9L40 13.2353L33 17Z" stroke="#EB7605" stroke-width="1.5" stroke-linecap="round" stroke-linejoin="round"/>
<rect x="2" y="26" width="20" height="20" rx="10" stroke="#EB7605" stroke-width="1.5"/>
<rect x="10" y="34" width="4" height="4" rx="2" stroke="#EB7605" stroke-width="1.5"/>
<path d="M7 39V33C7 31.8954 7.89543 31 9 31H15C16.1046 31 17 31.8954 17 33V39C17 40.1046 16.1046 41 15 41H9C7.89543 41 7 40.1046 7 39Z" stroke="#EB7605" stroke-width="1.5" stroke-linecap="round" stroke-linejoin="round"/>
<rect x="31" y="31" width="10" height="10" rx="5" stroke="#EB7605" stroke-width="1.5"/>
<path d="M34 34.5V35C34 36.6569 35.3431 38 37 38V38" stroke="#EB7605" stroke-width="1.5"/>
<rect x="26" y="26" width="20" height="20" rx="10" stroke="#EB7605" stroke-width="1.5"/>
<path d="M31.8571 39L31 41L33 40.3333" stroke="#EB7605" stroke-width="1.5" stroke-linecap="round" stroke-linejoin="round"/>
</svg>
