<svg width="48" height="48" viewBox="0 0 48 48" fill="none" xmlns="http://www.w3.org/2000/svg">
<path d="M24 22.5V21.0278C24 19.0535 23.4156 17.1234 22.3205 15.4808L21 13.5M21 13.5H19M21 13.5C21 13.5 22.5 13.6 22.5 12.2995C22.5 10.999 21 11 21 11H14.5C14.5 11 12.7296 11.2541 12 12.3056M11.5 15C12 16.5 14 16.5 14 16.5H15.5C16.3333 16.6667 18.1 17.4 18.5 19C18.9 20.6 19 22.5 19 22.5M11.5 15C11 13.5 11.7061 12.7292 12 12.3056M11.5 15C11 14.5 8.5 16.5 8.5 16.5C8 15.5 9 12 12 12.3056M19 22.5C16.5 22.5 16.5 23.5 16.5 27M19 22.5H29M16.5 27C15.1667 27 13 26.1 13 24.5C13 23.2835 13.5 22 14 21C14.2236 20.5528 14.5 18.5 12.5 18.5C10.9 18.5 6.16667 18.5 3.5 18.5C3.5 18.5 1 18.5 1 21C1 23.5 3.5 23.5 3.5 23.5M16.5 27V32M3.5 23.5L6 23M3.5 23.5C3.5 23.5 2 24.5 2.5 26.5C3 28.5 6 28 6 28M6 28L7.32289 27M6 28C6 28 4.5 29.5 5.5 31C6.5 32.5 8.5 31.5 8.5 31.5M8.5 31.5L9.5 30M8.5 31.5C8.5 31.5 8 33.5 9.5 34.2504C11 35.0008 12 34 12 34C12.1667 33.1742 12.8 31.8184 14 32C15.2 32.1816 16.1667 32.0757 16.5 32M16.5 32C16.5 32.5754 16.5397 33.0713 16.6139 33.5M22 37C23.3391 37.5356 23.8333 39 24 39.5M22 37L20.5 42.5C20.5 42.5 19.5 44.5 21 45.5C22 46.1667 23.5 45 24 44M22 37C21.3467 36.7387 20.6592 36.6139 20 36.483M14 13.5H15.5M24 25H19V30.5C19 33 19 34.2504 21.23 34.2504C23.46 34.2504 23.5 35 24 35.5M16.6139 33.5C15.7426 33.6667 14 34.3 14 35.5C14 36.7 14 38 14 38.5C14 39.1667 14.2 40.5 15 40.5C15.1891 40.5 15.354 40.4627 15.5 40.4014M16.6139 33.5C17.0155 35.8229 18.4271 36.1705 20 36.483M20 36.483C19.9142 39.1096 19.1943 40.2141 18 40.4503M18 40.4503C17.8416 40.4816 17.6748 40.4977 17.5 40.5L16.5 39.5C16.2455 39.7545 15.9715 40.2034 15.5 40.4014M18 40.4503V43.5L10.5 46C9.5 46 7.3 44.6 8.5 43C8.83203 42.5573 9.17172 42.3213 9.5 42.2221M15.5 40.4014V42C14.3333 42.5 11.9 43.4 11.5 43C11.1383 42.6383 10.3582 41.9628 9.5 42.2221M7.32289 38.5L9.5 42.2221M7.32289 38.5C7.32289 38.5 5.96017 38.5772 5.5 38C5.01311 37.3893 4.86329 36.4524 5.5 36C6.10035 35.5735 6.85881 35.9112 7.32289 36.483C7.81927 37.0946 7.32289 38.5 7.32289 38.5ZM24 9H23M18.5 9H20M20 9L19 6C18.8333 5.16667 19 3.5 21 3.5C21.3728 3.5 21.705 3.5 22 3.5M20 9H23M24 1V3.5C23.8644 3.5 23.2875 3.5 22 3.5M22 3.5L23 9" stroke="#EB7605" stroke-width="1.5" stroke-linecap="round" stroke-linejoin="round"/>
<path d="M24 22.5V21.0278C24 19.0535 24.5844 17.1234 25.6795 15.4808L27 13.5M27 13.5H29M27 13.5C27 13.5 25.5 13.6 25.5 12.2995C25.5 10.999 27 11 27 11H33.5C33.5 11 35.2704 11.2541 36 12.3056M36.5 15C36 16.5 34 16.5 34 16.5H32.5C31.6667 16.6667 29.9 17.4 29.5 19C29.1 20.6 29 22.5 29 22.5C31.5 22.5 31.5 23.5 31.5 27M36.5 15C37 13.5 36.2939 12.7292 36 12.3056M36.5 15C37 14.5 39.5 16.5 39.5 16.5C40 15.5 39 12 36 12.3056M31.5 27C32.8333 27 35 26.1 35 24.5C35 23.2835 34.5 22 34 21C33.7764 20.5528 33.5 18.5 35.5 18.5C37.1 18.5 41.8333 18.5 44.5 18.5C44.5 18.5 47 18.5 47 21C47 23.5 44.5 23.5 44.5 23.5M31.5 27V32M44.5 23.5L42 23M44.5 23.5C44.5 23.5 46 24.5 45.5 26.5C45 28.5 42 28 42 28M42 28L40.6771 27M42 28C42 28 43.5 29.5 42.5 31C41.5 32.5 39.5 31.5 39.5 31.5M39.5 31.5L38.5 30M39.5 31.5C39.5 31.5 40 33.5 38.5 34.2504C37 35.0008 36 34 36 34C35.8333 33.1742 35.2 31.8184 34 32C32.8 32.1816 31.8333 32.0757 31.5 32M31.5 32C31.5 32.5754 31.4603 33.0713 31.3861 33.5M26 37C24.6609 37.5356 24.1667 39 24 39.5M26 37L27.5 42.5C27.5 42.5 28.5 44.5 27 45.5C26 46.1667 24.5 45 24 44M26 37C26.6533 36.7387 27.3408 36.6139 28 36.483M34 13.5H32.5M24 25H29V30.5C29 33 29 34.2504 26.77 34.2504C24.54 34.2504 24.5 35 24 35.5M31.3861 33.5C32.2574 33.6667 34 34.3 34 35.5C34 36.7 34 38 34 38.5C34 39.1667 33.8 40.5 33 40.5C32.8109 40.5 32.646 40.4627 32.5 40.4014M31.3861 33.5C30.9845 35.8229 29.5729 36.1705 28 36.483M28 36.483C28.0858 39.1096 28.8057 40.2141 30 40.4503M30 40.4503C30.1584 40.4816 30.3252 40.4977 30.5 40.5L31.5 39.5C31.7545 39.7545 32.0285 40.2034 32.5 40.4014M30 40.4503V43.5L37.5 46C38.1039 46 39.1453 45.4895 39.6114 44.7327M32.5 40.4014V42C33.6667 42.5 36.1 43.4 36.5 43C36.6433 42.8567 36.8523 42.6642 37.1057 42.5M24 9H25M29.5 9H28M28 9L29 6C29.1667 5.16667 29 3.5 27 3.5C26.6272 3.5 26.295 3.5 26 3.5M28 9H25M24 1V3.5C24.1356 3.5 24.7125 3.5 26 3.5M26 3.5L25 9M37.1057 42.5C37.4921 42.2498 37.9818 42.0655 38.5 42.2221C38.8283 42.3213 39.168 42.5573 39.5 43C39.9754 43.6338 39.9172 44.2362 39.6114 44.7327M37.1057 42.5C37.1057 42.5 36.7116 41.227 37 40.5C37.4198 39.4416 39.5 39 39.5 39M39.5 39C39.5 39 41.9142 39.3284 42.5 40.5C42.9366 41.3732 42.9085 42.1132 42.5 43C41.9497 44.1948 39.6114 44.7327 39.6114 44.7327M39.5 39V36M38 37.5H41" stroke="#EB7605" stroke-width="1.5" stroke-linecap="round" stroke-linejoin="round"/>
</svg>
