<svg width="48" height="48" viewBox="0 0 48 48" fill="none" xmlns="http://www.w3.org/2000/svg">
<circle cx="22.288" cy="21.288" r="19.288" stroke="#EB7605" stroke-width="1.5"/>
<circle cx="22.2881" cy="21.2842" r="16.5967" stroke="#EB7605" stroke-width="1.5"/>
<path d="M20.7506 16.0538C19.843 19.0443 19.0362 19.5428 18.3302 20.2404L17.4226 17.5427C17.12 18.4462 16.2011 19.034 15.7042 21.7353C15.3006 24.3269 15.3234 30.7067 21.4518 30.7067C21.4518 30.7067 19.6378 28.9131 19.6378 26.2217C20.2429 26.8198 21.1717 27.8072 21.4531 27.4179C22.9659 25.3245 20.546 18.4458 23.8735 23.2309C27.201 28.016 24.1536 30.7067 24.1536 30.7067C24.1536 30.7067 31.4372 29.8099 29.6219 19.642C28.916 22.5329 27.1646 26.64 27.4067 21.1376C27.6487 15.6352 22.865 12.7643 20.2429 11.8672C20.4446 12.7643 21.0983 14.9081 20.7506 16.0538Z" stroke="#EB7605" stroke-width="1.5" stroke-linejoin="round"/>
<path d="M32.6055 37.5938L38.4691 44.1091C39.208 44.9302 40.4726 44.9968 41.2936 44.2579L42.9882 42.7328C43.8093 41.9939 43.8758 40.7293 43.1369 39.9083L37.2733 33.3929" stroke="#EB7605" stroke-width="1.5"/>
</svg>
