<svg width="48" height="48" viewBox="0 0 48 48" fill="none" xmlns="http://www.w3.org/2000/svg">
<path d="M18.259 41.919H14.5916C14.4149 41.919 14.2717 41.7756 14.2702 41.5989C14.236 37.3738 13.5982 33.3991 18.2587 31.1017M18.259 41.919V39.255M18.259 41.919H30.0677M30.0677 39.255V41.919M30.0677 41.919H33.1216C33.2984 41.919 33.4416 41.7755 33.4425 41.5988C33.465 37.4478 33.8621 33.7377 29.761 31.1017M18.2587 31.1017C18.7084 30.88 20.4646 30.4378 21.0648 30.3811C21.1349 30.3744 21.2031 30.3982 21.2589 30.441L26.168 34.2031C26.2938 34.2996 26.4714 34.2893 26.5853 34.1789L29.761 31.1017M18.2587 31.1017L21.5791 34.179C21.6974 34.2887 21.8789 34.2931 22.0025 34.1892L26.4511 30.45C26.5088 30.4016 26.5812 30.3745 26.6564 30.3776C27.3774 30.4065 29.1045 30.6797 29.761 31.1017" stroke="#EB7605" stroke-width="1.5" stroke-linecap="round"/>
<path d="M21.2631 30.3703V28.4091M21.2631 28.4091C20.351 27.3411 20.0391 26.6739 19.6569 25.5054C19.633 25.4322 19.5838 25.3699 19.5179 25.33L18.2157 24.5409C18.1576 24.5057 18.1126 24.4538 18.0885 24.3904C17.9413 24.003 17.4483 22.5703 18.1263 22.3746C18.3507 22.3099 18.7238 22.3746 18.7238 22.3746M21.2631 28.4091C23.4135 29.6232 24.133 29.7485 26.0429 28.4091M26.0429 28.4091C26.9496 27.6084 27.2631 26.8327 27.7941 25.4955C27.8207 25.4286 27.8693 25.3723 27.9317 25.3362L28.7975 24.8365C28.8519 24.8051 28.9179 24.7941 28.9727 24.7635C29.4464 24.4986 30.1928 22.2369 28.8809 22.3746C28.7586 22.3875 28.5821 22.4752 28.5821 22.4752M26.0429 28.4091V30.3703M18.7238 22.3746C18.7238 22.3746 18.1991 20.0648 18.7238 18.7539C20.3632 14.6583 27.0885 14.3626 28.5821 18.7539C29.0503 20.1304 28.5821 22.4752 28.5821 22.4752M18.7238 22.3746L19.8377 22.9883C20.0627 23.1122 20.3348 22.9336 20.32 22.6772C20.2682 21.774 20.3333 21.1057 20.6281 20.0879C20.6517 20.0065 20.7072 19.937 20.7841 19.9014C21.8916 19.3886 22.7083 20.207 23.9517 20.2625C25.1454 20.3158 25.994 19.3975 27.0112 20.1986C27.0622 20.2388 27.0973 20.2963 27.1129 20.3593C27.2862 21.0613 27.3221 21.5849 27.1884 22.4316C27.1499 22.6752 27.3811 22.8795 27.6148 22.8009L28.5821 22.4752" stroke="#EB7605" stroke-width="1.5" stroke-linecap="round"/>
<path d="M37.1163 20.8559C37.1163 20.8559 39.4697 21.58 41.3597 22.935C44.7457 25.3626 43.2327 34.4058 42.9274 36.0403C42.8996 36.1895 42.7693 36.2944 42.6176 36.2944H40.1489M37.1163 20.8559L36.0549 18.6291M37.1163 20.8559C37.1163 20.8559 35.2317 22.6097 33.7805 22.4888C32.5358 22.3851 31.0512 20.8559 31.0512 20.8559M40.1489 29.6143V36.2944M40.1489 36.2944L34.081 36.2944M31.0512 20.8559L28.7767 20.8559M31.0512 20.8559L31.8093 18.6291M29.0777 12.5944C29.4613 12.7199 30.2682 12.8397 31.8093 12.8397C33.9055 12.8397 35.398 11.5097 36.0911 10.5736C36.2281 10.3886 36.5132 10.3718 36.6574 10.5512C37.4775 11.5713 38.7387 12.9021 39.2398 12.5944M29.0777 12.5944C28.8574 12.5224 28.7767 12.4485 28.7767 12.3943C28.7262 11.5037 28.6848 9.98997 29.3832 8.5347C30.507 6.19319 36.4685 5.47907 37.3191 7.91248C37.4056 8.15999 37.7278 8.31436 37.982 8.25022C39.5083 7.86521 39.7976 11.3338 39.3913 12.3943C39.3547 12.49 39.3033 12.5554 39.2398 12.5944M29.0777 12.5944C28.6733 12.3144 27.8646 11.9225 27.8646 12.5944C27.8646 13.4344 27.5611 16.2548 29.0777 15.0673V15.0673C29.1751 14.991 29.5585 15.4375 29.5818 15.5589C29.8679 17.0483 31.3865 19.0754 34.081 19.0754C36.2324 19.0754 37.0279 18.1479 37.8741 15.6669C37.9473 15.4522 38.215 15.3731 38.4064 15.495C38.7756 15.7301 39.2197 15.916 39.3913 15.6611C39.6912 15.2157 40.2977 13.0849 39.9945 12.8397C39.7519 12.6435 39.3903 12.5944 39.2398 12.5944" stroke="#EB7605" stroke-width="1.5" stroke-linecap="round"/>
<path d="M10.3314 20.8874C10.3314 20.8874 8.06678 21.6101 6.24814 22.9624C2.99202 25.3836 4.444 34.3989 4.73899 36.0386C4.76602 36.1888 4.89684 36.2953 5.04946 36.2953H7.41326M10.3314 20.8874L11.3527 18.6651M10.3314 20.8874C10.3314 20.8874 12.1449 22.6377 13.5414 22.5171C14.739 22.4136 16.1677 20.8874 16.1677 20.8874M7.41326 29.6284V36.2953M7.41326 36.2953H14.2709M16.1677 20.8874H18.3563M16.1677 20.8874L15.4381 18.6651M18.0667 12.6423C18.2786 12.5705 18.3563 12.4967 18.3563 12.4427C18.4028 11.5919 18.4413 10.1716 17.8553 8.77793C17.807 8.66298 17.6928 8.59068 17.5681 8.59068H17.2123C17.0846 8.59068 16.9698 8.51459 16.9148 8.39938C16.6072 7.75531 15.9956 6.75497 15.4381 6.75497C14.6674 6.75497 9.22826 7.34758 8.68524 6.75497C8.14223 6.16235 6.35073 10.1625 8.97706 10.9033C9.13838 10.9488 9.299 10.9853 9.45863 11.0141M18.0667 12.6423C18.4558 12.3629 19.2339 11.9717 19.2339 12.6423C19.2339 13.4806 19.526 16.2955 18.0667 15.1103V15.1103C17.9761 15.0367 17.6049 15.4718 17.5842 15.5866C17.3157 17.0743 15.8533 19.1104 13.2522 19.1104C11.1866 19.1104 10.4199 18.1888 9.60763 15.7252C9.53538 15.506 9.26115 15.4262 9.06757 15.5518C8.71693 15.7794 8.30395 15.952 8.14223 15.7029C7.85365 15.2584 7.66389 12.6874 7.95571 12.4427C8.13626 12.2912 8.59608 12.3272 8.92048 12.3766C9.10808 12.4052 9.29061 12.279 9.3156 12.0909L9.45863 11.0141M18.0667 12.6423C17.4337 12.3589 15.9552 11.6144 15.1052 10.9033C14.1079 10.069 11.8979 11.4533 9.45863 11.0141" stroke="#EB7605" stroke-width="1.5" stroke-linecap="round"/>
</svg>
