<svg width="48" height="48" viewBox="0 0 48 48" fill="none" xmlns="http://www.w3.org/2000/svg">
<path d="M40.6935 16C40.6935 16 39.2419 17.0237 39.2419 18C39.2419 18.9763 39.7487 20 40.6935 20C41.6384 20 42.1452 18.9763 42.1452 18C42.1452 17.0237 40.6935 16 40.6935 16ZM40.6935 16V10.4348M12.629 15L1.5 12L25 6L46.5 12L35.8548 15" stroke="#EB7605" stroke-width="1.5" stroke-linecap="round" stroke-linejoin="round"/>
<path d="M13.5 24V14M35.5 14V24" stroke="#EB7605" stroke-width="1.5" stroke-linecap="round" stroke-linejoin="round"/>
<ellipse cx="24.5" cy="24" rx="11" ry="2" stroke="#EB7605" stroke-width="1.5" stroke-linecap="round" stroke-linejoin="round"/>
<path d="M35.5 14C35.5 12.3431 30.5751 11 24.5 11C18.4249 11 13.5 12.3431 13.5 14" stroke="#EB7605" stroke-width="1.5" stroke-linecap="round" stroke-linejoin="round"/>
<path d="M10.7903 37.6136H19.5968M41.8226 37.6136H25.8871M41.8226 33H43.5V31.0045H11.629C11.629 31.0045 4.5 30.5591 4.5 38.5C4.5 46.4409 11.629 45.9955 11.629 45.9955H43.5V44H41.8226M41.8226 33H10.7903C10.7903 33 6.37453 33 6.5 38.5C6.62547 44 10.7903 44 10.7903 44H41.8226M41.8226 33V44" stroke="#EB7605" stroke-width="1.5" stroke-linecap="round" stroke-linejoin="round"/>
</svg>
