<svg width="48" height="48" viewBox="0 0 48 48" fill="none" xmlns="http://www.w3.org/2000/svg">
<rect x="2" y="4" width="44" height="40" rx="2" stroke="#EB7605" stroke-width="1.5"/>
<path d="M3 10H46M25.7674 7H41.1625M16.7427 7H13.5576M7.18719 7H10.3724" stroke="#EB7605" stroke-width="1.5" stroke-linecap="round" stroke-linejoin="round"/>
<path d="M32.1301 37.1536L30.4453 30.3594L37.2317 32.7977L36.0164 34.1293L38.1944 36.6801L36.1289 38.7377L33.8306 35.7016L32.1301 37.1536Z" stroke="#EB7605" stroke-width="1.5" stroke-linejoin="round"/>
<path d="M12 20L13 26L15 21.5L17 26L18 20" stroke="#EB7605" stroke-width="1.5" stroke-linecap="round" stroke-linejoin="round"/>
<path d="M21 20L22 26L24 21.5L26 26L27 20" stroke="#EB7605" stroke-width="1.5" stroke-linecap="round" stroke-linejoin="round"/>
<path d="M30 20L31 26L33 21.5L35 26L36 20" stroke="#EB7605" stroke-width="1.5" stroke-linecap="round" stroke-linejoin="round"/>
</svg>
