<svg width="48" height="48" viewBox="0 0 48 48" fill="none" xmlns="http://www.w3.org/2000/svg">
<path d="M13.9213 18.6919L8.78208 20.0978C6.73647 20.6574 5.53182 22.7694 6.09142 24.815L7.1891 28.8275C7.7487 30.8732 9.86064 32.0778 11.9062 31.5182L17.0455 30.1123M13.9213 18.6919L31.2313 7.33271M13.9213 18.6919L17.0455 30.1123M31.2313 7.33271L31.144 7.01359C30.9108 6.16125 31.4127 5.28127 32.2651 5.04811L32.7811 4.90693C33.6335 4.67377 34.5135 5.1757 34.7466 6.02804L41.4171 30.4121C41.6503 31.2644 41.1484 32.1444 40.296 32.3776L39.78 32.5188C38.9276 32.7519 38.0477 32.25 37.8145 31.3976L37.73 31.089M31.2313 7.33271L34.4807 19.2108L37.73 31.089M37.73 31.089L17.0455 30.1123" stroke="#EB7605" stroke-width="1.5" stroke-linecap="round"/>
<path d="M14.395 30.9024L19.5837 41.5022C20.134 42.6264 21.4934 43.089 22.6152 42.5338V42.5338C23.7313 41.9814 24.19 40.6301 23.6408 39.5125L19.1298 30.3318" stroke="#EB7605" stroke-width="1.5" stroke-linecap="round"/>
<path d="M19.1302 30.3335L20.5169 33.1921C20.9849 34.1568 22.1493 34.5554 23.1103 34.0798V34.0798C24.053 33.6132 24.4487 32.4778 24.0002 31.5264L23.5497 30.5706" stroke="#EB7605" stroke-width="1.5" stroke-linecap="round"/>
<path d="M39.0691 20.2866C39.4485 20.2636 39.8181 20.1564 40.1509 19.9728C40.4837 19.7892 40.7715 19.5338 40.9933 19.2251C41.2151 18.9164 41.3653 18.5622 41.4332 18.1882C41.501 17.8142 41.4847 17.4298 41.3855 17.0629C41.2863 16.696 41.1066 16.3558 40.8595 16.067C40.6123 15.7781 40.304 15.548 39.9569 15.3932C39.6097 15.2384 39.2324 15.1628 38.8524 15.172C38.4725 15.1812 38.0993 15.2749 37.76 15.4463" stroke="#EB7605" stroke-width="1.5" stroke-linecap="round" stroke-linejoin="round"/>
<path d="M8.5 8V6H2.5V11.5H8.5V9.75M8.5 8L11.5 6V11.5L8.5 9.75M8.5 8V9.75M36.5 36.5V42L40.5 39.5L36.5 36.5Z" stroke="#EB7605" stroke-width="1.5" stroke-linecap="round" stroke-linejoin="round"/>
<circle cx="4" cy="40.5" r="1.5" stroke="#EB7605" stroke-width="1.5"/>
<circle cx="10" cy="36.5" r="1.5" stroke="#EB7605" stroke-width="1.5"/>
<circle cx="10" cy="43.5" r="1.5" stroke="#EB7605" stroke-width="1.5"/>
<path d="M8.5 37L5.5 39M5.5 41L8.5 43" stroke="#EB7605" stroke-width="1.5" stroke-linecap="round" stroke-linejoin="round"/>
</svg>
