<svg width="41" height="40" viewBox="0 0 41 40" fill="none" xmlns="http://www.w3.org/2000/svg">
<circle cx="20.3353" cy="20.0013" r="18.3333" stroke="#EB7605" stroke-width="1.25"/>
<path d="M12.0572 23.668V22.5713H13.7138V17.6946H12.3488V16.8546C12.7144 16.7846 13.0333 16.703 13.3055 16.6096C13.5777 16.5085 13.8305 16.388 14.0638 16.248H15.0672V22.5713H16.5255V23.668H12.0572ZM20.1736 23.808C19.6914 23.808 19.2597 23.7224 18.8786 23.5513C18.4975 23.3724 18.1981 23.1313 17.9803 22.828C17.7625 22.5169 17.6536 22.163 17.6536 21.7663C17.6536 21.4552 17.7158 21.183 17.8403 20.9496C17.9647 20.7085 18.1281 20.4985 18.3303 20.3196C18.5403 20.1407 18.762 19.9891 18.9953 19.8646V19.818C18.7153 19.608 18.4742 19.363 18.272 19.083C18.0697 18.803 17.9686 18.4685 17.9686 18.0796C17.9686 17.683 18.0658 17.3369 18.2603 17.0413C18.4547 16.738 18.7192 16.5085 19.0536 16.353C19.3958 16.1896 19.7808 16.108 20.2086 16.108C20.8775 16.108 21.4064 16.2946 21.7953 16.668C22.192 17.0335 22.3903 17.5157 22.3903 18.1146C22.3903 18.3557 22.3397 18.5852 22.2386 18.803C22.1453 19.0207 22.0208 19.2152 21.8653 19.3863C21.7175 19.5574 21.562 19.7013 21.3986 19.818V19.8646C21.6242 19.9891 21.8342 20.1407 22.0286 20.3196C22.2231 20.4907 22.3786 20.6969 22.4953 20.938C22.6197 21.1713 22.682 21.4552 22.682 21.7896C22.682 22.1707 22.577 22.513 22.367 22.8163C22.157 23.1196 21.8653 23.3607 21.492 23.5396C21.1186 23.7185 20.6792 23.808 20.1736 23.808ZM20.6636 19.4796C20.8658 19.2774 21.0175 19.0713 21.1186 18.8613C21.2275 18.6513 21.282 18.4296 21.282 18.1963C21.282 17.9785 21.2392 17.7841 21.1536 17.613C21.0681 17.4419 20.9436 17.3096 20.7803 17.2163C20.617 17.1152 20.4186 17.0646 20.1853 17.0646C19.8975 17.0646 19.6564 17.1541 19.462 17.333C19.2675 17.5119 19.1703 17.7607 19.1703 18.0796C19.1703 18.3285 19.2364 18.5385 19.3686 18.7096C19.5086 18.873 19.6914 19.0169 19.917 19.1413C20.1425 19.258 20.3914 19.3707 20.6636 19.4796ZM20.197 22.8513C20.4381 22.8513 20.6481 22.8085 20.827 22.723C21.0136 22.6296 21.1575 22.5013 21.2586 22.338C21.3675 22.1746 21.422 21.9763 21.422 21.743C21.422 21.4785 21.3403 21.2607 21.177 21.0896C21.0214 20.9107 20.8075 20.7591 20.5353 20.6346C20.2708 20.5024 19.9714 20.3702 19.637 20.238C19.4114 20.4013 19.2208 20.6035 19.0653 20.8446C18.9097 21.078 18.832 21.3385 18.832 21.6263C18.832 21.8752 18.8903 22.093 19.007 22.2796C19.1314 22.4585 19.2947 22.5985 19.497 22.6996C19.707 22.8007 19.9403 22.8513 20.197 22.8513ZM25.6417 22.513V20.308H23.5534V19.328H25.6417V17.123H26.6567V19.328H28.7451V20.308H26.6567V22.513H25.6417Z" fill="#EB7605"/>
</svg>
