<svg width="70" height="70" viewBox="0 0 70 70" fill="none" xmlns="http://www.w3.org/2000/svg">
<path d="M23.043 46.1289C22.693 45.837 22.3516 45.5311 22.0199 45.2122M46.043 46.1289C50.2384 42.7266 53.043 37.5217 53.043 31.6881C53.043 29.1715 52.6768 26.984 51.7721 24.7956M19.5178 42.2956C17.3836 39.2641 16.043 35.5781 16.043 31.6881C16.043 21.4382 24.3257 13.1289 34.543 13.1289C40.7412 13.1289 46.2275 16.1869 49.5846 20.881" stroke="#EB7605" stroke-width="2"/>
<path d="M23.043 46.1289L25.2979 49.8212L27.5528 53.5135H41.5332L43.7881 49.8212L46.043 46.1289M43.7881 63.4409V58.3597M25.2979 63.4409V58.3597M25.2979 58.3597V53.5135H43.7881V58.3597M25.2979 58.3597H43.7881" stroke="#EB7605" stroke-width="2" stroke-linecap="round" stroke-linejoin="round"/>
<circle cx="35" cy="35" r="30.625" stroke="#EB7605" stroke-width="2"/>
<path d="M8.75 48.8542L57.6042 15.3125" stroke="#EB7605" stroke-width="2" stroke-linecap="round"/>
<path d="M11.668 53.2292L60.5221 19.6875" stroke="#EB7605" stroke-width="2" stroke-linecap="round"/>
</svg>
