<svg width="70" height="70" viewBox="0 0 70 70" fill="none" xmlns="http://www.w3.org/2000/svg">
<g clip-path="url(#clip0_3171_69776)">
<path d="M19.5 33H4V67H19.5V63.5M19.5 33H27V36.5M19.5 33V63.5M19.5 63.5H27V60.5M11.5 55.5V62.5M27 60.5L27.4057 60.6106C34.4372 62.5283 41.693 63.5 48.9813 63.5H58L58.2664 63.4501C62.0098 62.7482 62.1879 57.4517 58.5 56.5V56.5H51.5H60L60.6103 56.391C64.0118 55.7836 64.3025 51.0162 61 50V50H51H62.5L63.0613 49.9107C66.7392 49.3256 66.6884 44.0147 63 43.5V43.5M27 60.5V36.5M63 43.5H53.5M63 43.5V43.5C66.4515 42.3495 66.2379 37.3971 62.7002 36.548L62.5 36.5H61M49.5 36.5H51M61 36.5H51M61 36.5L61.337 21M61.5 13.5H51M61.5 13.5L56 2L51 13.5M61.5 13.5L61.337 21M51 13.5V21M51 36.5V30M51 21H61.337M51 21V30M27 36.5L38 36L51 30" stroke="#EB7605" stroke-width="2" stroke-linecap="round" stroke-linejoin="round"/>
</g>
<defs>
<clipPath id="clip0_3171_69776">
<rect width="70" height="70" fill="white"/>
</clipPath>
</defs>
</svg>
