<svg width="70" height="70" viewBox="0 0 70 70" fill="none" xmlns="http://www.w3.org/2000/svg">
<g clip-path="url(#clip0_3171_69782)">
<path d="M53.5 56H7V56C1.07133 56.9528 0.813342 65.3892 6.67271 66.7025L8 67H53.5V36.8351M53.5 16.2321V5.5H7.95475C5.21106 5.5 2.9799 7.71097 2.95496 10.4545L2.5 60.5M25.7388 21.5C25.0348 20.8845 24.5679 20.0189 24.5 19C24.3531 16.7958 26.2909 15.0092 28.5 15C30.5756 14.9914 32.3619 16.4289 32.5 18.5C32.5695 19.5432 32.1721 20.4929 31.5 21.2048M25.7388 21.5C26.526 22.1882 27.4806 22.4449 28.5 22.5C29.6402 22.4285 30.6965 22.0559 31.5 21.2048M25.7388 21.5C23.1975 23.08 22.0102 24.3059 20.5 27.7999M20.5 27.7999C22.426 30.0627 25.2953 31.4981 28.5 31.5C31.7413 31.5019 34.6238 30.0784 36.5469 27.7999M20.5 27.7999C18.9409 25.9682 18 23.5943 18 21C18 15.201 22.701 10.5032 28.5 10.5C34.4387 10.4967 39.2828 15.5681 39 21.5C38.8847 23.9186 37.9835 26.0978 36.5469 27.7999M31.5 21.2048C34.0005 23.1206 35.1075 24.5529 36.5469 27.7999M19 37.5H34M19 42.5H30M19 48H27.5M32 48L38.5 41.4718M57.5 22.3893L38.5 41.4718M38.5 41.4718V31.5L66.5 3C68.3743 20.3995 61.0712 30.091 48.5 41.4718H38.5Z" stroke="#EB7605" stroke-width="2" stroke-linecap="round" stroke-linejoin="round"/>
</g>
<defs>
<clipPath id="clip0_3171_69782">
<rect width="70" height="70" fill="white"/>
</clipPath>
</defs>
</svg>
